<svg width="132" height="39" viewBox="0 0 132 39" fill="none" xmlns="http://www.w3.org/2000/svg">
<g clip-path="url(#clip0_310_2699)">
<path d="M31.9443 35.9862C31.9624 35.7226 31.8679 35.4515 31.7598 35.1764C30.3889 31.6915 29.0324 28.2006 27.6543 24.7183C26.4273 21.6166 25.1718 18.5263 23.8205 15.4758C23.3318 14.3723 22.8597 13.2598 22.2716 12.205C21.7653 11.2968 20.4414 11.1434 19.7303 11.8999C18.9307 12.7507 18.1709 13.6376 17.4246 14.5355C16.1085 16.1184 14.8221 17.7251 13.5468 19.3413C11.4846 21.9548 9.4613 24.5981 7.43889 27.2422C6.37503 28.6334 5.3096 30.0234 4.24609 31.4148C3.92488 31.835 3.77137 32.3102 3.87336 32.8331C4.02809 33.6277 4.67629 34.1408 5.54949 34.248C6.61949 34.3794 7.6858 34.5401 8.75334 34.6906C9.82088 34.8408 10.8877 34.9956 11.9554 35.1457C13.0151 35.2947 14.0756 35.4389 15.1355 35.5884C16.3197 35.7552 17.5034 35.9269 18.6877 36.0938C19.7475 36.2432 20.808 36.3873 21.8677 36.5368C23.1532 36.7187 24.4381 36.9072 25.7239 37.087C27.1425 37.2852 28.5631 37.4678 29.9804 37.6744C31.038 37.8283 31.944 37.0775 31.9443 35.9862ZM34.1307 39.3262C31.1456 39.3617 28.1602 39.3433 25.1753 39.3479C21.8659 39.3528 18.5569 39.3621 15.2476 39.366C10.8877 39.3705 6.52784 39.3714 2.16813 39.3735C0.907307 39.3742 -0.16479 38.113 0.0216619 36.866C0.0849222 36.4435 0.246315 36.072 0.454671 35.7025C2.44238 32.1774 4.41168 28.6422 6.40237 25.1187C9.2433 20.0905 12.1032 15.0729 15.1705 10.1777C15.795 9.18113 16.4329 8.1928 17.1135 7.23338C17.8686 6.16882 19.3613 5.99691 20.3384 6.8561C20.5662 7.05639 20.725 7.31399 20.8942 7.56107C22.6265 10.088 24.2095 12.7088 25.7756 15.3396C29.4602 21.5295 32.9799 27.8138 36.5106 34.0919C36.8627 34.7176 37.2463 35.3266 37.5741 35.9646C38.0564 36.9039 37.9845 38.0641 37.0069 38.8154C36.573 39.1492 36.1076 39.3777 35.5282 39.3335C35.0651 39.2983 34.5967 39.3265 34.1309 39.3265L34.1307 39.3262Z" fill="#AE4345"/>
<path d="M59.533 6.356C56.5479 6.32043 53.5626 6.33883 50.5776 6.33445C47.2682 6.32954 43.9593 6.32008 40.6499 6.3164C36.29 6.31166 31.9301 6.31096 27.5703 6.30869C26.3098 6.30798 25.2377 7.56916 25.424 8.81614C25.4872 9.23881 25.6486 9.61014 25.857 9.97971C27.8447 13.5048 29.814 17.0402 31.8049 20.5635C34.6456 25.5917 37.5056 30.6092 40.573 35.5045C41.1974 36.5012 41.8352 37.4894 42.5158 38.449C43.2709 39.5134 44.7638 39.6853 45.7407 38.8263C45.9687 38.6258 46.1273 38.3684 46.2966 38.1213C48.0288 35.5944 49.6119 32.9737 51.1781 30.3425C54.8626 24.1528 58.3824 17.8683 61.9131 11.5903C62.2652 10.9647 62.6489 10.3558 62.9766 9.71756C63.4589 8.77829 63.387 7.61805 62.4095 6.86681C61.9755 6.53316 61.5101 6.30466 60.9307 6.34864C60.4676 6.38386 59.9993 6.35582 59.5334 6.35582L59.533 6.356ZM51.4687 12.5045C50.6116 16.4221 49.7864 20.347 48.814 24.2385C48.5543 25.278 48.2844 26.3151 47.9574 27.3358C47.703 28.1297 46.9292 28.3611 46.2666 27.8517C46.1539 27.7653 46.0437 27.6754 45.9342 27.5852C43.9044 25.9136 41.9877 24.1157 40.0715 22.3176C38.3569 20.7086 36.668 19.0717 34.9519 17.4641C34.1879 16.7484 34.651 15.7877 35.389 15.5641C40.305 14.076 45.2129 12.5615 50.1235 11.0546C50.8643 10.8273 51.5258 11.3098 51.5333 12.1036C51.5468 12.2297 51.499 12.3659 51.4688 12.5042L51.4687 12.5045Z" fill="#AE4345"/>
<path d="M90.8723 6.10315L86.0109 19.5154H82.2713L79.2548 11.1889L76.1386 19.5154H72.399L67.5625 6.10315H71.2272L74.3934 15.1776L77.6843 6.10315H80.9749L84.166 15.1776L87.4319 6.10315H90.8723Z" fill="#5E5E5E"/>
<path d="M100.883 12.809C100.883 10.4906 99.4124 9.09452 97.4678 9.09452C95.523 9.09452 94.0275 10.4906 94.0275 12.809C94.0275 15.1276 95.5232 16.5235 97.4678 16.5235C99.4122 16.5235 100.883 15.1274 100.883 12.809ZM90.0884 12.809C90.0884 8.77033 93.2046 5.90329 97.4678 5.90329C101.731 5.90329 104.822 8.77033 104.822 12.809C104.822 16.8477 101.731 19.7147 97.4678 19.7147C93.2046 19.7147 90.0884 16.8477 90.0884 12.809Z" fill="#5E5E5E"/>
<path d="M113.764 5.90353V9.49343C113.44 9.46872 113.191 9.44384 112.891 9.44384C110.747 9.44384 109.326 10.6155 109.326 13.1832L109.351 19.4824H105.462L105.438 6.1033H109.152V7.87319C110.099 6.57697 111.695 5.90388 113.764 5.90388V5.90353Z" fill="#5E5E5E"/>
<path d="M120.161 14.2551L118.291 16.0998V19.5153H114.402V1.01703H118.291V11.4878L123.975 6.10309H128.612L123.028 11.7869L129.111 19.5153H124.399L120.161 14.2551Z" fill="#5E5E5E"/>
<path d="M81.7577 30.845V38.5235H77.8685V31.4432C77.8685 29.2743 76.8965 28.2769 75.3258 28.2769C73.5808 28.2769 72.3593 29.3991 72.3593 31.7923V38.5233H68.4701V31.443C68.4701 29.2741 67.5478 28.2767 65.9272 28.2767C64.2073 28.2767 62.9855 29.3989 62.9855 31.7921V38.5231H59.0967V25.1109H62.8112V26.6565C63.8083 25.5097 65.3041 24.9113 67.0244 24.9113C68.894 24.9113 70.4895 25.6345 71.4368 27.1051C72.5087 25.734 74.2538 24.9113 76.2732 24.9113C79.4642 24.9113 81.7579 26.7562 81.7579 30.8446L81.7577 30.845Z" fill="#FA5759"/>
<path d="M91.3199 34.2854V32.9143H88.6522C86.8324 32.9143 86.259 33.5871 86.259 34.4848C86.259 35.4568 87.0818 36.1054 88.4528 36.1054C89.7492 36.1054 90.8711 35.507 91.3199 34.2854ZM95.2089 30.87V38.5235H91.5691V36.8531C90.846 38.0747 89.4501 38.7231 87.4806 38.7231C84.3395 38.7231 82.4697 36.9779 82.4697 34.6592C82.4697 32.291 84.1401 30.6457 88.2283 30.6457H91.3199C91.3199 28.9754 90.3226 28.003 88.2283 28.003C86.8075 28.003 85.3366 28.4768 84.3644 29.2494L82.9681 26.5322C84.439 25.4852 86.6081 24.9116 88.7521 24.9116C92.8404 24.9116 95.2091 26.8063 95.2091 30.87H95.2089Z" fill="#FA5759"/>
<path d="M105.345 37.8754C104.547 38.4486 103.376 38.7229 102.179 38.7229C99.0127 38.7229 97.168 37.1026 97.168 33.9114V27.2422H95.0986V24.2508H97.168L97.1435 20.7105H101.032L101.057 24.2508H104.398V27.2422H101.057V33.8614C101.057 35.0084 101.68 35.6317 102.727 35.6317C103.301 35.6317 103.874 35.457 104.298 35.133L105.345 37.8756L105.345 37.8754Z" fill="#FA5759"/>
<path d="M104.301 31.8174C104.301 27.7789 107.417 24.9116 111.78 24.9116C114.597 24.9116 116.816 26.1332 117.788 28.3272L114.771 29.9478C114.048 28.6762 112.977 28.103 111.755 28.103C109.785 28.103 108.24 29.4741 108.24 31.8175C108.24 34.161 109.785 35.532 111.755 35.532C112.976 35.532 114.048 34.9837 114.771 33.6873L117.788 35.3326C116.816 37.4766 114.597 38.7232 111.78 38.7232C107.417 38.7232 104.301 35.8562 104.301 31.8175V31.8174Z" fill="#FA5759"/>
<path d="M132 30.8449V38.5234H128.111V31.4431C128.111 29.2742 127.114 28.2768 125.394 28.2768C123.524 28.2768 122.178 29.4237 122.178 31.8917V38.5232H118.289V20.0249H122.178V26.5069C123.224 25.4599 124.72 24.9114 126.441 24.9114C129.607 24.9114 132 26.7563 132 30.8447L132 30.8449Z" fill="#FA5759"/>
<path d="M26.1306 33.5784C26.1233 34.3722 25.4619 34.8546 24.7212 34.6273C19.8107 33.1207 14.9027 31.6061 9.98643 30.1178C9.24851 29.8944 8.78554 28.9337 9.54939 28.2181C11.2657 26.6105 12.9544 24.9738 14.6691 23.3646C16.585 21.5666 18.5019 19.7685 20.5316 18.0971C20.6413 18.0067 20.7516 17.917 20.8642 17.8304C21.527 17.321 22.3006 17.5527 22.5551 18.3463C22.8824 19.3669 23.1521 20.4043 23.4116 21.4438C24.3842 25.3354 25.2092 29.2602 26.0663 33.178C26.0966 33.3162 26.1443 33.4522 26.1308 33.5784H26.1306ZM31.7594 35.1765C30.3885 31.6916 29.032 28.2009 27.6541 24.7186C26.4268 21.6167 25.1714 18.5265 23.8203 15.4759C23.3316 14.3725 22.8591 13.2601 22.2714 12.2051C21.7653 11.2971 20.4414 11.1436 19.7303 11.9001C18.9307 12.7512 18.1707 13.6377 17.4245 14.5356C16.1087 16.1189 14.8221 17.7254 13.5469 19.3415C11.4847 21.9551 9.46125 24.5982 7.43902 27.2427C6.37499 28.6337 5.30972 30.0237 4.24621 31.4149C3.92501 31.8353 3.77167 32.3105 3.87349 32.8336C4.0284 33.6282 4.67625 34.1412 5.54945 34.2487C6.61944 34.3801 7.68593 34.5406 8.75347 34.691C9.82119 34.8413 10.888 34.9957 11.9554 35.146C13.0154 35.295 14.0758 35.4392 15.1358 35.5885C16.32 35.7555 17.5037 35.9271 18.688 36.0941C19.7478 36.2436 20.8083 36.3874 21.868 36.5373C23.1537 36.719 24.4384 36.9074 25.7242 37.0871C27.1428 37.2855 28.5632 37.4683 29.9807 37.6745C31.0383 37.8284 31.9443 37.078 31.9444 35.9865C31.9628 35.7229 31.8682 35.4518 31.7597 35.1767L31.7594 35.1765Z" fill="#FA5759"/>
<path d="M51.4686 12.5044C50.6113 16.422 49.7863 20.347 48.8139 24.2384C48.5542 25.2779 48.2844 26.3152 47.9574 27.3359C47.7029 28.1297 46.9291 28.3612 46.2665 27.8518C46.1539 27.7654 46.0436 27.6755 45.9341 27.5853C43.9043 25.9137 41.9876 24.1158 40.0714 22.3177C38.3569 20.7087 36.668 19.072 34.9519 17.4642C34.1878 16.7485 34.6508 15.7878 35.3889 15.5644C40.305 14.0763 45.2128 12.5617 50.1235 11.0549C50.8642 10.8276 51.5257 11.31 51.5333 12.1038C51.5468 12.23 51.4989 12.3662 51.4688 12.5044H51.4686ZM57.3464 9.6961C57.3462 8.60455 56.4401 7.85419 55.3825 8.00805C53.9654 8.2143 52.5447 8.39707 51.126 8.59527C49.8403 8.77506 48.5555 8.96344 47.2698 9.14516C46.2101 9.29498 45.1497 9.43885 44.0899 9.58833C42.9053 9.75533 41.7218 9.92689 40.5373 10.0939C39.4775 10.2434 38.417 10.3874 37.3572 10.5365C36.2898 10.6867 35.2228 10.8411 34.1552 10.9916C33.0875 11.142 32.0212 11.3025 30.9514 11.4339C30.0784 11.5413 29.4302 12.0544 29.2754 12.849C29.1734 13.372 29.3268 13.8473 29.648 14.2675C30.7118 15.6587 31.7771 17.0487 32.8411 18.4399C34.8635 21.0842 36.887 23.7273 38.9492 26.3408C40.2242 27.9571 41.5108 29.5637 42.8266 31.147C43.5728 32.0449 44.333 32.9316 45.1324 33.7823C45.8433 34.539 47.1676 34.3853 47.6737 33.4774C48.2616 32.4225 48.7339 31.3098 49.2226 30.2066C50.5738 27.156 51.8292 24.0657 53.0564 20.9638C54.4345 17.4817 55.791 13.9908 57.1619 10.5059C57.27 10.2307 57.3646 9.95966 57.3464 9.69628V9.6961Z" fill="#FA5759"/>
</g>
<defs>
<clipPath id="clip0_310_2699">
<rect width="132" height="39" fill="white"/>
</clipPath>
</defs>
</svg>
