<svg width="64" height="33" viewBox="0 0 64 33" fill="none" xmlns="http://www.w3.org/2000/svg">
<path d="M31.9443 29.9862C31.9624 29.7226 31.8679 29.4515 31.7598 29.1764C30.3889 25.6915 29.0324 22.2006 27.6543 18.7183C26.4273 15.6166 25.1718 12.5263 23.8205 9.4758C23.3318 8.37234 22.8597 7.25976 22.2716 6.20501C21.7653 5.29676 20.4414 5.14343 19.7303 5.89993C18.9307 6.7507 18.1709 7.63757 17.4246 8.53548C16.1085 10.1184 14.8221 11.7251 13.5468 13.3413C11.4846 15.9548 9.4613 18.5981 7.43889 21.2422C6.37503 22.6334 5.3096 24.0234 4.24609 25.4148C3.92488 25.835 3.77137 26.3102 3.87336 26.8331C4.02809 27.6277 4.67629 28.1408 5.54949 28.248C6.61949 28.3794 7.6858 28.5401 8.75334 28.6906C9.82088 28.8408 10.8877 28.9956 11.9554 29.1457C13.0151 29.2947 14.0756 29.4389 15.1355 29.5884C16.3197 29.7552 17.5034 29.9269 18.6877 30.0938C19.7475 30.2432 20.808 30.3873 21.8677 30.5368C23.1532 30.7187 24.4381 30.9072 25.7239 31.087C27.1425 31.2852 28.5631 31.4678 29.9804 31.6744C31.038 31.8283 31.944 31.0775 31.9443 29.9862V29.9862ZM34.1307 33.3262C31.1456 33.3617 28.1602 33.3433 25.1753 33.3479C21.8659 33.3528 18.5569 33.3621 15.2476 33.366C10.8877 33.3705 6.52784 33.3714 2.16813 33.3735C0.907307 33.3742 -0.16479 32.113 0.0216619 30.866C0.0849222 30.4435 0.246315 30.072 0.454671 29.7025C2.44238 26.1774 4.41168 22.6422 6.40237 19.1187C9.2433 14.0905 12.1032 9.07293 15.1705 4.1777C15.795 3.18113 16.4329 2.1928 17.1135 1.23338C17.8686 0.168819 19.3613 -0.00308782 20.3384 0.856096C20.5662 1.05639 20.725 1.31399 20.8942 1.56107C22.6265 4.08798 24.2095 6.70882 25.7756 9.33964C29.4602 15.5295 32.9799 21.8138 36.5106 28.0919C36.8627 28.7176 37.2463 29.3266 37.5741 29.9646C38.0564 30.9039 37.9845 32.0641 37.0069 32.8154C36.573 33.1492 36.1076 33.3777 35.5282 33.3335C35.0651 33.2983 34.5967 33.3265 34.1309 33.3265L34.1307 33.3262Z" fill="#AE4345"/>
<path d="M59.533 0.356C56.5479 0.320427 53.5626 0.338826 50.5776 0.334445C47.2682 0.329539 43.9593 0.320076 40.6499 0.316396C36.29 0.311665 31.9301 0.310964 27.5703 0.308686C26.3098 0.307985 25.2377 1.56916 25.424 2.81614C25.4872 3.23881 25.6486 3.61014 25.857 3.97971C27.8447 7.50477 29.814 11.0402 31.8049 14.5635C34.6456 19.5917 37.5056 24.6092 40.573 29.5045C41.1974 30.5012 41.8352 31.4894 42.5158 32.449C43.2709 33.5134 44.7638 33.6853 45.7407 32.8263C45.9687 32.6258 46.1273 32.3684 46.2966 32.1213C48.0288 29.5944 49.6119 26.9737 51.1781 24.3425C54.8626 18.1528 58.3824 11.8683 61.9131 5.59031C62.2652 4.96472 62.6489 4.35577 62.9766 3.71756C63.4589 2.77829 63.387 1.61805 62.4095 0.866814C61.9755 0.533164 61.5101 0.304655 60.9307 0.348639C60.4676 0.383862 59.9993 0.355824 59.5334 0.355824L59.533 0.356ZM51.4687 6.50452C50.6116 10.4221 49.7864 14.347 48.814 18.2385C48.5543 19.278 48.2844 20.3151 47.9574 21.3358C47.703 22.1296 46.9292 22.3611 46.2666 21.8517C46.1539 21.7653 46.0437 21.6754 45.9342 21.5852C43.9044 19.9136 41.9877 18.1157 40.0715 16.3176C38.3569 14.7086 36.668 13.0717 34.9519 11.4641C34.1879 10.7484 34.651 9.78775 35.389 9.56415C40.305 8.07604 45.2129 6.56147 50.1235 5.05461C50.8643 4.82733 51.5258 5.30976 51.5333 6.10358C51.5468 6.22975 51.499 6.36591 51.4688 6.50417L51.4687 6.50452Z" fill="#AE4345"/>
<path d="M26.1306 27.5784C26.1233 28.3722 25.4619 28.8546 24.7212 28.6273C19.8107 27.1207 14.9027 25.6061 9.98643 24.1178C9.24851 23.8944 8.78554 22.9337 9.54939 22.2181C11.2657 20.6105 12.9544 18.9737 14.6691 17.3646C16.585 15.5666 18.5019 13.7685 20.5316 12.0971C20.6413 12.0067 20.7516 11.917 20.8642 11.8304C21.527 11.321 22.3006 11.5527 22.5551 12.3463C22.8824 13.3669 23.1521 14.4043 23.4116 15.4438C24.3842 19.3354 25.2092 23.2602 26.0663 27.178C26.0966 27.3162 26.1443 27.4522 26.1308 27.5784H26.1306ZM31.7594 29.1765C30.3885 25.6916 29.032 22.2009 27.6541 18.7186C26.4268 15.6167 25.1714 12.5265 23.8203 9.47593C23.3316 8.37247 22.8591 7.26007 22.2714 6.20515C21.7653 5.29707 20.4414 5.14356 19.7303 5.90006C18.9307 6.75118 18.1707 7.63771 17.4245 8.53562C16.1087 10.1189 14.8221 11.7254 13.5469 13.3415C11.4847 15.9551 9.46125 18.5982 7.43902 21.2427C6.37499 22.6337 5.30972 24.0237 4.24621 25.4149C3.92501 25.8353 3.77167 26.3105 3.87349 26.8336C4.0284 27.6282 4.67625 28.1412 5.54945 28.2487C6.61944 28.3801 7.68593 28.5406 8.75347 28.691C9.82119 28.8413 10.888 28.9957 11.9554 29.146C13.0154 29.295 14.0758 29.4392 15.1358 29.5885C16.32 29.7555 17.5037 29.9271 18.688 30.0941C19.7478 30.2436 20.8083 30.3874 21.868 30.5373C23.1537 30.719 24.4384 30.9074 25.7242 31.0871C27.1428 31.2855 28.5632 31.4683 29.9807 31.6745C31.0383 31.8284 31.9443 31.078 31.9444 29.9865C31.9628 29.7229 31.8682 29.4518 31.7597 29.1767L31.7594 29.1765Z" fill="#FA5759"/>
<path d="M51.4686 6.50444C50.6113 10.422 49.7863 14.347 48.8139 18.2384C48.5542 19.2779 48.2844 20.3152 47.9574 21.3359C47.7029 22.1297 46.9291 22.3612 46.2665 21.8518C46.1539 21.7654 46.0436 21.6755 45.9341 21.5853C43.9043 19.9137 41.9876 18.1158 40.0714 16.3177C38.3569 14.7087 36.668 13.072 34.9519 11.4642C34.1878 10.7485 34.6508 9.78784 35.3889 9.56442C40.305 8.07631 45.2128 6.56174 50.1235 5.05488C50.8642 4.8276 51.5257 5.31003 51.5333 6.10385C51.5468 6.23002 51.4989 6.36618 51.4688 6.50444H51.4686ZM57.3464 3.6961C57.3462 2.60455 56.4401 1.85419 55.3825 2.00805C53.9654 2.2143 52.5447 2.39707 51.126 2.59527C49.8403 2.77506 48.5555 2.96344 47.2698 3.14516C46.2101 3.29498 45.1497 3.43885 44.0899 3.58833C42.9053 3.75533 41.7218 3.92689 40.5373 4.09389C39.4775 4.24336 38.417 4.38741 37.3572 4.53653C36.2898 4.68671 35.2228 4.8411 34.1552 4.99162C33.0875 5.14198 32.0212 5.30249 30.9514 5.43392C30.0784 5.54134 29.4302 6.05443 29.2754 6.84895C29.1734 7.37204 29.3268 7.84728 29.648 8.26749C30.7118 9.6587 31.7771 11.0487 32.8411 12.4399C34.8635 15.0842 36.887 17.7273 38.9492 20.3408C40.2242 21.9571 41.5108 23.5637 42.8266 25.147C43.5728 26.0449 44.333 26.9316 45.1324 27.7823C45.8433 28.539 47.1676 28.3853 47.6737 27.4774C48.2616 26.4225 48.7339 25.3098 49.2226 24.2066C50.5738 21.156 51.8292 18.0657 53.0564 14.9638C54.4345 11.4817 55.791 7.99079 57.1619 4.50587C57.27 4.23075 57.3646 3.95966 57.3464 3.69628V3.6961Z" fill="#FA5759"/>
</svg>
