<svg width="51" height="27" viewBox="0 0 51 27" fill="none" xmlns="http://www.w3.org/2000/svg">
<path d="M25.4103 23.6141C25.4247 23.4044 25.3496 23.1888 25.2636 22.9699C24.1731 20.1978 23.0941 17.421 21.9979 14.651C21.0218 12.1837 20.0231 9.72555 18.9482 7.299C18.5595 6.42125 18.184 5.53625 17.7162 4.69724C17.3134 3.97477 16.2603 3.8528 15.6947 4.45456C15.0586 5.13131 14.4542 5.83678 13.8606 6.55102C12.8137 7.81016 11.7904 9.08825 10.7759 10.3739C9.13556 12.4528 7.52613 14.5554 5.9174 16.6587C5.07115 17.7653 4.22364 18.871 3.37767 19.9777C3.12216 20.312 3.00005 20.69 3.08118 21.106C3.20426 21.738 3.71988 22.1461 4.41447 22.2314C5.2656 22.336 6.11381 22.4638 6.96299 22.5835C7.81217 22.703 8.66079 22.8261 9.51011 22.9455C10.353 23.064 11.1966 23.1787 12.0397 23.2977C12.9817 23.4304 13.9233 23.567 14.8653 23.6997C15.7083 23.8186 16.5519 23.9331 17.3948 24.052C18.4174 24.1967 19.4395 24.3467 20.4623 24.4897C21.5907 24.6474 22.7208 24.7926 23.8482 24.957C24.6894 25.0794 25.4101 24.4822 25.4103 23.6141V23.6141ZM27.1495 26.2709C24.775 26.2992 22.4003 26.2846 20.0259 26.2882C17.3935 26.2921 14.7613 26.2995 12.1289 26.3025C8.66079 26.3062 5.1927 26.3069 1.72475 26.3085C0.721821 26.3091 -0.130983 25.3059 0.0173309 24.314C0.0676516 23.9779 0.196032 23.6824 0.36177 23.3884C1.9429 20.5844 3.50939 17.7723 5.09289 14.9695C7.35273 10.9698 9.62761 6.97854 12.0675 3.08461C12.5643 2.29188 13.0717 1.50571 13.6131 0.742534C14.2138 -0.104276 15.4011 -0.24102 16.1784 0.442421C16.3596 0.601747 16.4859 0.806654 16.6205 1.0032C17.9984 3.01324 19.2577 5.098 20.5034 7.1907C23.4343 12.1145 26.2342 17.1134 29.0426 22.1072C29.3227 22.605 29.6278 23.0894 29.8886 23.5969C30.2722 24.3441 30.2151 25.267 29.4374 25.8646C29.0923 26.1301 28.722 26.3119 28.2612 26.2768C27.8928 26.2487 27.5202 26.2712 27.1497 26.2712L27.1495 26.2709Z" fill="#AE4345"/>
<path d="M47.3561 0.0446173C44.9815 0.0163206 42.6068 0.0309567 40.2324 0.0274719C37.6 0.0235689 34.9678 0.0160417 32.3354 0.0131144C28.8673 0.00935084 25.3992 0.00879323 21.9311 0.00698113C20.9285 0.00642356 20.0757 1.00963 20.2238 2.00155C20.2742 2.33776 20.4025 2.63314 20.5683 2.92712C22.1494 5.73114 23.7159 8.54338 25.2995 11.346C27.5592 15.3457 29.8343 19.337 32.2742 23.2309C32.7709 24.0238 33.2782 24.8098 33.8196 25.5731C34.4203 26.4198 35.6078 26.5565 36.3849 25.8732C36.5662 25.7138 36.6924 25.509 36.827 25.3125C38.2049 23.3024 39.4642 21.2178 40.7101 19.1248C43.641 14.2012 46.4408 9.20215 49.2493 4.20827C49.5293 3.71064 49.8346 3.22625 50.0953 2.71859C50.4789 1.97144 50.4217 1.04852 49.6442 0.450947C49.2989 0.185543 48.9287 0.00377508 48.4679 0.0387626C48.0994 0.0667805 47.727 0.0444778 47.3563 0.0444778L47.3561 0.0446173ZM40.9412 4.93549C40.2594 8.05175 39.603 11.1739 38.8296 14.2694C38.623 15.0962 38.4083 15.9212 38.1482 16.7331C37.9458 17.3646 37.3302 17.5487 36.8032 17.1435C36.7136 17.0748 36.6259 17.0033 36.5388 16.9315C34.9242 15.6018 33.3995 14.1716 31.8753 12.7413C30.5114 11.4614 29.168 10.1594 27.8029 8.88057C27.1951 8.3113 27.5636 7.54715 28.1505 7.36928C32.0611 6.18556 35.965 4.98079 39.8712 3.78215C40.4604 3.60136 40.9867 3.98511 40.9926 4.61655C41.0034 4.71692 40.9653 4.82523 40.9414 4.93521L40.9412 4.93549Z" fill="#AE4345"/>
<path d="M20.7855 21.6988C20.7797 22.3302 20.2536 22.714 19.6644 22.5332C15.7583 21.3347 11.8542 20.1299 7.94354 18.9461C7.35656 18.7683 6.98829 18.0042 7.5959 17.4349C8.96111 16.1561 10.3044 14.8542 11.6684 13.5741C13.1924 12.144 14.7172 10.7137 16.3318 9.38415C16.419 9.31222 16.5067 9.24085 16.5963 9.17199C17.1235 8.76678 17.7389 8.95105 17.9413 9.58236C18.2017 10.3942 18.4162 11.2194 18.6227 12.0463C19.3963 15.1419 20.0526 18.2639 20.7343 21.3803C20.7585 21.4903 20.7964 21.5984 20.7856 21.6988H20.7855ZM25.2629 22.97C24.1725 20.1979 23.0934 17.4212 21.9974 14.6512C21.0211 12.1838 20.0225 9.72566 18.9478 7.29911C18.559 6.42136 18.1832 5.53649 17.7157 4.69735C17.3131 3.97502 16.26 3.85291 15.6943 4.45467C15.0583 5.1317 14.4537 5.83688 13.8602 6.55113C12.8135 7.81054 11.7901 9.08849 10.7757 10.374C9.13535 12.453 7.52578 14.5555 5.91719 16.659C5.0708 17.7655 4.22343 18.8712 3.37746 19.9778C3.12195 20.3122 2.99998 20.6903 3.08097 21.1064C3.20419 21.7384 3.71953 22.1465 4.41412 22.232C5.26525 22.3365 6.1136 22.4642 6.96278 22.5838C7.8121 22.7034 8.66072 22.8262 9.50976 22.9458C10.3529 23.0643 11.1964 23.179 12.0396 23.2978C12.9816 23.4306 13.9232 23.5671 14.8652 23.6999C15.7083 23.8188 16.5519 23.9332 17.3948 24.0524C18.4175 24.197 19.4394 24.3468 20.4623 24.4898C21.5906 24.6476 22.7206 24.793 23.8481 24.9571C24.6893 25.0795 25.41 24.4826 25.4101 23.6143C25.4248 23.4047 25.3495 23.189 25.2632 22.9702L25.2629 22.97Z" fill="#FA5759"/>
<path d="M40.9408 4.93529C40.2588 8.05155 39.6026 11.1737 38.8291 14.2692C38.6225 15.096 38.4078 15.9211 38.1477 16.7331C37.9453 17.3645 37.3298 17.5487 36.8027 17.1434C36.7131 17.0747 36.6254 17.0032 36.5383 16.9314C34.9237 15.6018 33.3991 14.1716 31.8748 12.7413C30.511 11.4614 29.1675 10.1595 27.8024 8.88052C27.1947 8.31124 27.563 7.54709 28.1501 7.36937C32.0606 6.18565 35.9646 4.98087 39.8708 3.78224C40.46 3.60145 40.9862 3.98519 40.9922 4.61664C41.0029 4.717 40.9649 4.82531 40.9409 4.93529H40.9408ZM45.6163 2.70139C45.6161 1.83311 44.8953 1.23623 44.0541 1.35862C42.9268 1.52268 41.7968 1.66807 40.6682 1.82572C39.6455 1.96874 38.6235 2.11859 37.6008 2.26314C36.7579 2.38232 35.9144 2.49676 35.0713 2.61566C34.1291 2.7485 33.1876 2.88497 32.2454 3.01781C31.4024 3.13671 30.5588 3.25129 29.7157 3.36991C28.8667 3.48937 28.0179 3.61218 27.1688 3.73192C26.3194 3.85152 25.4712 3.9792 24.6202 4.08374C23.9258 4.16919 23.4102 4.57733 23.2871 5.20934C23.206 5.62543 23.3279 6.00346 23.5834 6.33772C24.4297 7.44436 25.2771 8.55002 26.1235 9.65666C27.7322 11.7601 29.3418 13.8626 30.9821 15.9415C31.9963 17.2272 33.0198 18.5052 34.0665 19.7646C34.66 20.4788 35.2647 21.1842 35.9006 21.8609C36.4661 22.4628 37.5195 22.3406 37.9221 21.6184C38.3897 20.7792 38.7654 19.8941 39.1542 19.0166C40.229 16.5899 41.2276 14.1317 42.2038 11.6643C43.3 8.89446 44.379 6.11762 45.4695 3.34552C45.5555 3.12667 45.6308 2.91103 45.6163 2.70153V2.70139Z" fill="#FA5759"/>
</svg>
